<svg fill="#000000" xmlns="http://www.w3.org/2000/svg"  viewBox="0 0 50 50" width="50px" height="50px"><path fill="none" stroke="#000000" stroke-linecap="round" stroke-linejoin="round" stroke-miterlimit="10" stroke-width="2" d="M38.999,17.655c-0.994,0.441-2.061,0.737-3.183,0.873c1.145-0.686,2.023-1.772,2.437-3.064c-1.07,0.634-2.257,1.095-3.518,1.343c-1.01-1.078-2.449-1.749-4.042-1.749c-3.06,0-5.54,2.48-5.54,5.539c0,0.434,0.049,0.856,0.145,1.262c-4.603-0.232-8.685-2.437-11.418-5.788c-0.477,0.82-0.749,1.771-0.749,2.786c0,1.921,0.976,3.616,2.464,4.611c-0.909-0.029-1.762-0.278-2.509-0.694c0,0.024,0,0.046,0,0.07c0,2.685,1.909,4.921,4.441,5.432c-0.463,0.128-0.953,0.195-1.458,0.195c-0.358,0-0.705-0.035-1.044-0.1c0.707,2.199,2.752,3.803,5.175,3.847c-1.894,1.486-4.283,2.37-6.879,2.37c-0.448,0-0.888-0.025-1.321-0.077C14.45,36.083,17.363,37,20.491,37c10.189,0,15.762-8.441,15.762-15.759c0-0.241-0.006-0.481-0.016-0.717C37.318,19.743,38.257,18.766,38.999,17.655z"/><path fill="none" stroke="#000000" stroke-linecap="round" stroke-miterlimit="10" stroke-width="2" d="M25 3A22 22 0 1 0 25 47A22 22 0 1 0 25 3Z"/></svg>